<?xml version="1.0" encoding="utf-8"?>
<!-- Generator: Adobe Illustrator 24.1.0, SVG Export Plug-In . SVG Version: 6.00 Build 0)  -->
<svg version="1.1" id="Badges" xmlns="http://www.w3.org/2000/svg" xmlns:xlink="http://www.w3.org/1999/xlink" x="0px" y="0px"
	 viewBox="0 0 128 40" style="enable-background:new 0 0 128 40;" xml:space="preserve">
<style type="text/css">
	.st0{fill:#FF9900;}
	.st1{fill:#FFFFFF;}
	.st2{fill-rule:evenodd;clip-rule:evenodd;fill:#FFFFFF;}
</style>
<g>
	<path d="M124,40H4c-2.2,0-4-1.8-4-4V4c0-2.2,1.8-4,4-4h120c2.2,0,4,1.8,4,4v32C128,38.2,126.2,40,124,40z"/>
	<path class="st0" d="M29.4,28.5c-9.7,4.6-15.7,0.8-19.5-1.6c-0.2-0.1-0.6,0-0.3,0.4c1.3,1.6,5.5,5.3,11,5.3s8.7-3,9.2-3.5
		C30.1,28.6,29.9,28.3,29.4,28.5z"/>
	<path class="st0" d="M32.2,27c-0.3-0.3-1.6-0.4-2.4-0.3c-0.8,0.1-2.1,0.6-2,0.9c0.1,0.1,0.2,0.1,0.7,0c0.6-0.1,2.2-0.3,2.5,0.2
		c0.3,0.4-0.5,2.5-0.7,2.9c-0.1,0.3,0.1,0.4,0.3,0.2c0.3-0.2,0.8-0.8,1.1-1.6C32.2,28.4,32.4,27.2,32.2,27z"/>
	<path class="st1" d="M27,21.1v-7.7c0-1.3-1.3-4.3-5.9-4.3S14,12,14,14.6l3.9,0.3c0,0,0.9-2.6,2.8-2.6c2,0,1.9,1.6,1.9,2V16
		c-2.6,0.1-8.9,0.8-8.9,6.2c0,5.7,7.2,6,9.6,2.3c0.1,0.2,0.2,0.3,0.3,0.4c0.9,0.9,2,2,2,2l3-2.9C28.7,23.9,27,22.6,27,21.1z
		 M22.6,20.5c0,4.2-4.4,3.6-4.4,0.9c0-2.5,2.6-3,4.4-3V20.5z"/>
	<g>
		<path class="st1" d="M42.9,8.1h1.2l2.5,6.4h-1.2l-0.6-1.7h-2.6l-0.6,1.7h-1.2L42.9,8.1z M42.5,11.9h2l-1-2.8l0,0L42.5,11.9z"/>
		<path class="st1" d="M46.4,9.8h1.1l1.2,3.6l0,0l1.1-3.6h1.1l-1.7,4.7H48L46.4,9.8z"/>
		<path class="st1" d="M55.4,13.5c0,0.1,0,0.2,0,0.3c0,0.1,0.1,0.1,0.2,0.1h0.1h0.1v0.7h-0.1c-0.1,0-0.1,0-0.2,0c-0.1,0-0.1,0-0.2,0
			c-0.1,0-0.1,0-0.2,0c-0.2,0-0.4,0-0.5-0.1s-0.2-0.2-0.3-0.4c-0.2,0.2-0.5,0.3-0.8,0.4s-0.6,0.1-0.9,0.1c-0.2,0-0.4,0-0.6-0.1
			c-0.2-0.1-0.4-0.1-0.5-0.3c-0.1-0.1-0.3-0.3-0.4-0.4C51,13.6,51,13.4,51,13.2c0-0.3,0.1-0.5,0.2-0.7c0.1-0.2,0.2-0.3,0.4-0.4
			s0.4-0.2,0.6-0.2s0.4-0.1,0.6-0.1c0.2,0,0.4-0.1,0.5-0.1c0.2,0,0.3,0,0.4-0.1s0.2-0.1,0.3-0.2s0.1-0.2,0.1-0.3
			c0-0.1,0-0.2-0.1-0.3c-0.1-0.1-0.1-0.1-0.2-0.2s-0.2-0.1-0.3-0.1s-0.2,0-0.3,0c-0.3,0-0.5,0.1-0.7,0.2s-0.3,0.3-0.3,0.6h-1
			c0-0.3,0.1-0.5,0.2-0.7c0.1-0.2,0.3-0.4,0.5-0.5s0.4-0.2,0.7-0.3c0.2,0,0.5-0.1,0.8-0.1c0.2,0,0.5,0,0.7,0.1
			c0.2,0,0.4,0.1,0.6,0.2s0.3,0.2,0.4,0.4c0.1,0.2,0.2,0.4,0.2,0.6L55.4,13.5L55.4,13.5z M54.4,12.2c-0.2,0.1-0.3,0.2-0.6,0.2
			c-0.2,0-0.5,0.1-0.7,0.1c-0.1,0-0.2,0-0.3,0.1c-0.1,0-0.2,0.1-0.3,0.1c-0.1,0.1-0.1,0.1-0.2,0.2c0,0.1-0.1,0.2-0.1,0.3
			c0,0.1,0,0.2,0.1,0.3c0.1,0.1,0.1,0.1,0.2,0.2s0.2,0.1,0.3,0.1s0.2,0,0.3,0s0.2,0,0.4,0c0.1,0,0.3-0.1,0.4-0.2
			c0.1-0.1,0.2-0.2,0.3-0.3c0.1-0.1,0.1-0.2,0.1-0.4L54.4,12.2L54.4,12.2z"/>
		<path class="st1" d="M56.6,8.1h1v1h-1V8.1z M56.6,9.8h1v4.7h-1V9.8z"/>
		<path class="st1" d="M58.8,8.1h1v6.4h-1V8.1z"/>
		<path class="st1" d="M64.8,13.5c0,0.1,0,0.2,0,0.3c0,0.1,0.1,0.1,0.2,0.1h0.1h0.1v0.7h-0.1c-0.1,0-0.1,0-0.2,0c-0.1,0-0.1,0-0.2,0
			c-0.1,0-0.1,0-0.2,0c-0.2,0-0.4,0-0.5-0.1s-0.2-0.2-0.3-0.4c-0.2,0.2-0.5,0.3-0.8,0.4s-0.6,0.1-0.9,0.1c-0.2,0-0.4,0-0.6-0.1
			c-0.2-0.1-0.4-0.1-0.5-0.3c-0.1-0.1-0.3-0.3-0.4-0.4c-0.1-0.2-0.1-0.4-0.1-0.6c0-0.3,0.1-0.5,0.2-0.7c0.1-0.2,0.2-0.3,0.4-0.4
			s0.4-0.2,0.6-0.2s0.4-0.1,0.6-0.1c0.2,0,0.4-0.1,0.5-0.1c0.2,0,0.3,0,0.4-0.1s0.2-0.1,0.3-0.2s0.1-0.2,0.1-0.3
			c0-0.1,0-0.2-0.1-0.3c-0.1-0.1-0.1-0.1-0.2-0.2s-0.2-0.1-0.3-0.1s-0.2,0-0.3,0c-0.3,0-0.5,0.1-0.7,0.2s-0.3,0.3-0.3,0.6h-1
			c0-0.3,0.1-0.5,0.2-0.7c0.1-0.2,0.3-0.4,0.5-0.5s0.4-0.2,0.7-0.3c0.2,0,0.5-0.1,0.8-0.1c0.2,0,0.5,0,0.7,0.1
			c0.2,0,0.4,0.1,0.6,0.2s0.3,0.2,0.4,0.4c0.1,0.2,0.2,0.4,0.2,0.6L64.8,13.5L64.8,13.5z M63.8,12.2c-0.2,0.1-0.3,0.2-0.6,0.2
			c-0.2,0-0.5,0.1-0.7,0.1c-0.1,0-0.2,0-0.3,0.1c-0.1,0-0.2,0.1-0.3,0.1c-0.1,0.1-0.1,0.1-0.2,0.2c0,0.1-0.1,0.2-0.1,0.3
			c0,0.1,0,0.2,0.1,0.3c0.1,0.1,0.1,0.1,0.2,0.2s0.2,0.1,0.3,0.1s0.2,0,0.3,0s0.2,0,0.4,0c0.1,0,0.3-0.1,0.4-0.2
			c0.1-0.1,0.2-0.2,0.3-0.3c0.1-0.1,0.1-0.2,0.1-0.4L63.8,12.2L63.8,12.2z"/>
		<path class="st1" d="M65.9,8.1h1v2.4l0,0c0.1-0.1,0.2-0.2,0.3-0.3c0.1-0.1,0.2-0.2,0.3-0.2c0.1-0.1,0.3-0.1,0.4-0.1
			c0.1,0,0.3,0,0.4,0c0.4,0,0.7,0.1,1,0.2s0.5,0.3,0.7,0.5s0.3,0.5,0.4,0.8c0.1,0.3,0.1,0.6,0.1,1c0,0.3,0,0.6-0.1,0.9
			s-0.2,0.6-0.4,0.8c-0.2,0.2-0.4,0.4-0.6,0.5c-0.3,0.1-0.5,0.2-0.9,0.2c-0.2,0-0.3,0-0.5,0s-0.3-0.1-0.5-0.1
			c-0.1-0.1-0.3-0.1-0.4-0.2c-0.1-0.1-0.2-0.2-0.3-0.4l0,0v0.6h-1L65.9,8.1L65.9,8.1z M69.5,12.2c0-0.2,0-0.4-0.1-0.6
			s-0.1-0.4-0.2-0.5c-0.1-0.2-0.2-0.3-0.4-0.4s-0.3-0.1-0.6-0.1c-0.4,0-0.8,0.2-1,0.5s-0.3,0.7-0.3,1.2c0,0.2,0,0.5,0.1,0.7
			s0.1,0.4,0.3,0.5c0.1,0.1,0.2,0.3,0.4,0.3s0.3,0.1,0.6,0.1c0.2,0,0.4,0,0.6-0.1c0.2-0.1,0.3-0.2,0.4-0.4c0.1-0.2,0.2-0.3,0.2-0.5
			C69.5,12.6,69.5,12.4,69.5,12.2z"/>
		<path class="st1" d="M71.4,8.1h1v6.4h-1V8.1z"/>
		<path class="st1" d="M74.4,12.4c0,0.2,0,0.4,0.1,0.5c0.1,0.2,0.1,0.3,0.2,0.4c0.1,0.1,0.2,0.2,0.4,0.3s0.3,0.1,0.6,0.1
			s0.5-0.1,0.7-0.2s0.3-0.3,0.4-0.6h1c-0.1,0.3-0.1,0.5-0.3,0.7c-0.1,0.2-0.3,0.4-0.5,0.5s-0.4,0.2-0.6,0.3
			c-0.2,0.1-0.5,0.1-0.7,0.1c-0.4,0-0.7-0.1-1-0.2S74.2,14,74,13.8s-0.3-0.5-0.4-0.8c-0.1-0.3-0.1-0.6-0.1-1c0-0.3,0.1-0.6,0.2-0.9
			c0.1-0.3,0.3-0.6,0.5-0.8c0.2-0.2,0.4-0.4,0.7-0.5s0.6-0.2,0.9-0.2c0.4,0,0.7,0.1,1,0.2c0.3,0.2,0.5,0.4,0.7,0.6
			c0.2,0.3,0.3,0.5,0.4,0.9c0.1,0.3,0.1,0.7,0.1,1h-3.6V12.4z M76.8,11.8c0-0.2,0-0.3-0.1-0.5c-0.1-0.1-0.1-0.3-0.2-0.4
			c-0.1-0.1-0.2-0.2-0.4-0.3c-0.1-0.1-0.3-0.1-0.5-0.1s-0.3,0-0.5,0.1c-0.1,0.1-0.3,0.1-0.4,0.3c-0.1,0.1-0.2,0.2-0.3,0.4
			c-0.1,0.2-0.1,0.3-0.1,0.5H76.8z"/>
		<path class="st1" d="M83.2,14.6c-0.4,0-0.7-0.1-1-0.2s-0.5-0.3-0.7-0.5s-0.4-0.5-0.5-0.8s-0.2-0.6-0.2-1s0.1-0.7,0.2-1
			c0.1-0.3,0.3-0.6,0.5-0.8s0.4-0.4,0.7-0.5s0.6-0.2,1-0.2s0.7,0.1,1,0.2s0.5,0.3,0.7,0.5s0.4,0.5,0.5,0.8s0.2,0.6,0.2,1
			s-0.1,0.7-0.2,1c-0.1,0.3-0.3,0.6-0.5,0.8c-0.2,0.2-0.4,0.4-0.7,0.5C83.9,14.6,83.6,14.6,83.2,14.6z M83.2,13.8
			c0.2,0,0.4,0,0.6-0.1c0.2-0.1,0.3-0.2,0.4-0.4c0.1-0.2,0.2-0.3,0.2-0.5c0.1-0.2,0.1-0.4,0.1-0.6s0-0.4-0.1-0.6s-0.1-0.4-0.2-0.5
			c-0.1-0.2-0.2-0.3-0.4-0.4s-0.4-0.1-0.6-0.1c-0.2,0-0.4,0-0.6,0.1c-0.2,0.1-0.3,0.2-0.4,0.4c-0.1,0.2-0.2,0.3-0.2,0.5
			c-0.1,0.2-0.1,0.4-0.1,0.6s0,0.4,0.1,0.6s0.1,0.4,0.2,0.5c0.1,0.2,0.2,0.3,0.4,0.4C82.8,13.8,83,13.8,83.2,13.8z"/>
		<path class="st1" d="M86.4,9.8h1v0.7l0,0c0.2-0.3,0.4-0.5,0.6-0.6s0.5-0.2,0.8-0.2c0.5,0,0.9,0.1,1.2,0.4s0.4,0.7,0.4,1.2v3.2h-1
			v-2.9c0-0.4-0.1-0.6-0.2-0.8c-0.1-0.2-0.4-0.2-0.7-0.2c-0.2,0-0.3,0-0.5,0.1c-0.1,0.1-0.3,0.1-0.4,0.3c-0.1,0.1-0.2,0.2-0.2,0.4
			c-0.1,0.2-0.1,0.3-0.1,0.5v2.7h-1V9.8H86.4z"/>
	</g>
	<path class="st2" d="M67.3,23v-1.1c0-0.2,0.1-0.3,0.3-0.3h4.7c0.2,0,0.3,0.1,0.3,0.3v0.9c0,0.2-0.1,0.3-0.4,0.7L69.8,27
		c0.9,0,1.9,0.1,2.7,0.6c0.2,0.1,0.2,0.3,0.3,0.4v1.1c0,0.2-0.2,0.3-0.3,0.2c-1.5-0.8-3.4-0.8-5,0c-0.2,0.1-0.3-0.1-0.3-0.2V28
		c0-0.2,0-0.5,0.2-0.7l2.8-4.1h-2.5C67.4,23.2,67.3,23.1,67.3,23z"/>
	<path class="st2" d="M50,29.6h-1.4c-0.1,0-0.2-0.1-0.3-0.2V22c0-0.1,0.1-0.3,0.3-0.3h1.3c0.1,0,0.3,0.1,0.3,0.2v1l0,0
		c0.3-0.9,1-1.4,1.9-1.4s1.5,0.4,1.9,1.4c0.3-0.9,1.1-1.4,2-1.4c0.6,0,1.3,0.2,1.7,0.8c0.5,0.6,0.4,1.5,0.4,2.3v4.7
		c0,0.1-0.1,0.3-0.3,0.3h-1.4c-0.1,0-0.3-0.1-0.3-0.3v-3.9c0-0.3,0-1.1,0-1.4c-0.1-0.5-0.4-0.6-0.8-0.6c-0.3,0-0.7,0.2-0.9,0.6
		s-0.1,1-0.1,1.4v3.9c0,0.1-0.1,0.3-0.3,0.3h-1.4c-0.1,0-0.3-0.1-0.3-0.3v-3.9c0-0.8,0.1-2-0.9-2s-1,1.2-1,2v3.9
		C50.3,29.5,50.2,29.6,50,29.6z"/>
	<path class="st2" d="M76.6,21.5c2.1,0,3.3,1.8,3.3,4.2c0,2.3-1.3,4-3.3,4c-2.1,0-3.2-1.8-3.2-4.1C73.4,23.3,74.5,21.5,76.6,21.5z
		 M76.6,23c-1.1,0-1.1,1.4-1.1,2.3c0,0.9,0,2.8,1.1,2.8s1.2-1.6,1.2-2.5c0-0.6,0-1.4-0.2-2C77.4,23.2,77.1,23,76.6,23z"/>
	<path class="st2" d="M82.7,29.6h-1.4c-0.1,0-0.3-0.1-0.3-0.3v-7.4c0-0.1,0.1-0.2,0.3-0.2h1.3c0.1,0,0.2,0.1,0.3,0.2V23l0,0
		c0.4-1,1-1.5,2-1.5c0.6,0,1.3,0.2,1.7,0.9C87,23,87,24,87,24.7v4.6c0,0.1-0.1,0.2-0.3,0.2h-1.4c-0.1,0-0.2-0.1-0.3-0.2v-4
		c0-0.8,0.1-2-0.9-2c-0.3,0-0.7,0.2-0.8,0.6c-0.2,0.5-0.2,0.9-0.2,1.4v4C83,29.5,82.8,29.6,82.7,29.6z"/>
	<ellipse class="st2" cx="88.5" cy="29" rx="0.7" ry="0.7"/>
	<path class="st1" d="M103,29.6c-0.1,0-0.3-0.1-0.3-0.3v-7.4c0-0.1,0.1-0.2,0.3-0.2h0.5c0.1,0,0.3,0.1,0.3,0.2V23
		c0.4-0.9,1.1-1.5,2-1.5h0.1h0.1c0.9,0,1.6,0.7,1.9,1.7c0.4-1,1.1-1.7,2.1-1.7h0.1h0.1c0.7,0,1.4,0.5,1.7,1.1
		c0.3,0.7,0.3,1.5,0.3,2.3v4.4c0,0.1-0.1,0.3-0.3,0.3h-0.6c-0.1,0-0.2-0.1-0.3-0.2v-4.5c0-0.5,0-1.1-0.2-1.6s-0.6-0.8-1.1-0.8
		s-1,0.4-1.3,0.9c-0.4,0.6-0.4,1.2-0.4,2v4c0,0.1-0.1,0.2-0.3,0.2h-0.6c-0.1,0-0.3-0.1-0.3-0.3v-4.7c0-0.4,0-0.9-0.2-1.3
		c-0.2-0.4-0.6-0.7-1.1-0.8c-0.5,0-0.9,0.4-1.2,0.8c-0.3,0.5-0.4,1.1-0.4,1.8v4.3c0,0.1-0.1,0.3-0.3,0.3H103V29.6z"/>
	<path class="st1" d="M98.7,29.7c-2,0-3-2.1-3-4.2c0-2.2,1.1-4.1,3.1-4.1h0.1H99c2,0,3,2,3,4.1c0,2.2-1.1,4.1-3.2,4.1h-0.1V29.7z
		 M98.8,28.7c0.7,0,1.2-0.4,1.5-1.1c0.3-0.6,0.3-1.3,0.3-2s-0.1-1.5-0.4-2.2c-0.3-0.6-0.9-0.9-1.4-0.9c-0.6,0-1.2,0.5-1.5,1.1
		s-0.3,1.3-0.3,2s0.1,1.5,0.4,2.2C97.7,28.3,98.2,28.7,98.8,28.7z"/>
	<path class="st1" d="M92.3,28.7c0.9,0,1.4-0.8,1.6-1.7c0-0.1,0.1-0.2,0.3-0.2h0.6c0.1,0,0.3,0.1,0.3,0.2c-0.3,1.6-1.3,2.7-2.6,2.7
		h-0.1h-0.1c-2,0-2.9-2-2.9-4.1c0-2,0.9-4.1,2.9-4.1h0.1h0.1c1.4,0,2.4,1.1,2.6,2.7c0,0.1-0.1,0.2-0.2,0.2h-0.6
		c-0.1,0-0.2-0.1-0.2-0.3c-0.2-0.9-0.7-1.6-1.5-1.7c-1.4,0-1.8,1.7-1.8,3C90.6,26.8,90.9,28.6,92.3,28.7z"/>
	<path class="st2" d="M63.5,26c0,0.6,0,1-0.3,1.5c-0.2,0.4-0.6,0.7-1,0.7c-0.6,0-0.9-0.4-0.9-1c0-1.2,1.1-1.4,2.1-1.4V26H63.5z
		 M65,29.6c-0.1,0.1-0.2,0.1-0.3,0c-0.5-0.4-0.6-0.6-0.8-1c-0.8,0.8-1.3,1-2.4,1c-1.2,0-2.2-0.7-2.2-2.2c0-1.2,0.6-2,1.5-2.4
		c0.8-0.3,1.9-0.4,2.7-0.5v-0.2c0-0.3,0-0.7-0.2-1s-0.5-0.4-0.8-0.4c-0.5,0-1,0.3-1.2,0.9c0,0.1-0.1,0.3-0.2,0.3l-1.4-0.2
		c-0.1,0-0.2-0.1-0.2-0.3c0.3-1.7,1.8-2.2,3.2-2.2c0.7,0,1.6,0.2,2.2,0.7c0.7,0.7,0.6,1.5,0.6,2.5v2.2c0,0.7,0.3,1,0.5,1.3
		c0.1,0.1,0.1,0.3,0,0.4C65.8,28.8,65.3,29.3,65,29.6L65,29.6z"/>
	<path class="st2" d="M44.7,26c0,0.6,0,1-0.3,1.5c-0.2,0.4-0.6,0.7-1,0.7c-0.6,0-0.9-0.4-0.9-1c0-1.2,1.1-1.4,2.1-1.4L44.7,26
		L44.7,26z M46.1,29.6c-0.1,0.1-0.2,0.1-0.3,0c-0.5-0.4-0.6-0.6-0.8-1c-0.8,0.8-1.3,1-2.4,1c-1.2,0-2.2-0.7-2.2-2.2
		c0-1.2,0.6-2,1.5-2.4c0.8-0.3,1.9-0.4,2.7-0.5v-0.2c0-0.3,0-0.7-0.2-1s-0.5-0.4-0.8-0.4c-0.5,0-1,0.3-1.2,0.9
		c0,0.1-0.1,0.3-0.2,0.3l-1.4-0.2c-0.1,0-0.2-0.1-0.2-0.3c0.3-1.7,1.8-2.2,3.2-2.2c0.7,0,1.6,0.2,2.2,0.7c0.7,0.7,0.6,1.5,0.6,2.5
		v2.2c0,0.7,0.3,1,0.5,1.3c0.1,0.1,0.1,0.3,0,0.4C46.9,28.8,46.4,29.3,46.1,29.6L46.1,29.6z"/>
</g>
</svg>
