<svg xmlns="http://www.w3.org/2000/svg" viewBox="0 0 128 40" xmlns:v="https://vecta.io/nano"><path d="M124 40H4c-2.2 0-4-1.8-4-4V4c0-2.2 1.8-4 4-4h120c2.2 0 4 1.8 4 4v32c0 2.2-1.8 4-4 4z"/><path d="M29.4 28.5c-9.7 4.6-15.7.8-19.5-1.6-.2-.1-.6 0-.3.4 1.3 1.6 5.5 5.3 11 5.3s8.7-3 9.2-3.5c.3-.5.1-.8-.4-.6zm2.8-1.5c-.3-.3-1.6-.4-2.4-.3s-2.1.6-2 .9c.1.1.2.1.7 0 .6-.1 2.2-.3 2.5.2.3.4-.5 2.5-.7 2.9-.1.3.1.4.3.2.3-.2.8-.8 1.1-1.6.5-.9.7-2.1.5-2.3z" fill="#f90"/><g fill="#fff"><path d="M27 21.1v-7.7c0-1.3-1.3-4.3-5.9-4.3S14 12 14 14.6l3.9.3s.9-2.6 2.8-2.6c2 0 1.9 1.6 1.9 2V16c-2.6.1-8.9.8-8.9 6.2 0 5.7 7.2 6 9.6 2.3a1.38 1.38 0 0 0 .3.4l2 2 3-2.9c.1-.1-1.6-1.4-1.6-2.9zm-4.4-.6c0 4.2-4.4 3.6-4.4.9 0-2.5 2.6-3 4.4-3v2.1zM42.9 8.1h1.2l2.5 6.4h-1.2l-.6-1.7h-2.6l-.6 1.7h-1.2l2.5-6.4zm-.4 3.8h2l-1-2.8h0l-1 2.8zm3.9-2.1h1.1l1.2 3.6h0l1.1-3.6h1.1l-1.7 4.7H48l-1.6-4.7zm9 3.7v.3c0 .1.1.1.2.1h.1.1v.7h-.1-.2-.2-.2c-.2 0-.4 0-.5-.1a1.38 1.38 0 0 1-.3-.4c-.2.2-.5.3-.8.4s-.6.1-.9.1c-.2 0-.4 0-.6-.1s-.4-.1-.5-.3l-.4-.4c-.1-.2-.1-.4-.1-.6 0-.3.1-.5.2-.7a.78.78 0 0 1 .4-.4c.2-.1.4-.2.6-.2s.4-.1.6-.1.4-.1.5-.1c.2 0 .3 0 .4-.1s.2-.1.3-.2.1-.2.1-.3 0-.2-.1-.3l-.2-.2c-.1-.1-.2-.1-.3-.1h-.3c-.3 0-.5.1-.7.2s-.3.3-.3.6h-1c0-.3.1-.5.2-.7s.3-.4.5-.5.4-.2.7-.3c.2 0 .5-.1.8-.1.2 0 .5 0 .7.1.2 0 .4.1.6.2a.78.78 0 0 1 .4.4c.1.2.2.4.2.6l.1 2.5h0zm-1-1.3c-.2.1-.3.2-.6.2-.2 0-.5.1-.7.1-.1 0-.2 0-.3.1-.1 0-.2.1-.3.1l-.2.2c0 .1-.1.2-.1.3s0 .2.1.3l.2.2c.1.1.2.1.3.1h.3.4a.76.76 0 0 0 .4-.2l.3-.3c.1-.1.1-.2.1-.4l.1-.7h0zm2.2-4.1h1v1h-1v-1zm0 1.7h1v4.7h-1V9.8zm2.2-1.7h1v6.4h-1V8.1zm6 5.4v.3c0 .1.1.1.2.1h.1.1v.7h-.1-.2-.2-.2c-.2 0-.4 0-.5-.1s-.2-.2-.3-.4c-.2.2-.5.3-.8.4s-.6.1-.9.1c-.2 0-.4 0-.6-.1s-.4-.1-.5-.3l-.4-.4c-.1-.2-.1-.4-.1-.6 0-.3.1-.5.2-.7a.78.78 0 0 1 .4-.4c.2-.1.4-.2.6-.2s.4-.1.6-.1.4-.1.5-.1c.2 0 .3 0 .4-.1s.2-.1.3-.2.1-.2.1-.3 0-.2-.1-.3l-.2-.2c-.1-.1-.2-.1-.3-.1h-.3c-.3 0-.5.1-.7.2s-.3.3-.3.6h-1c0-.3.1-.5.2-.7s.3-.4.5-.5.4-.2.7-.3c.2 0 .5-.1.8-.1.2 0 .5 0 .7.1.2 0 .4.1.6.2a.78.78 0 0 1 .4.4c.1.2.2.4.2.6l.1 2.5h0zm-1-1.3c-.2.1-.3.2-.6.2-.2 0-.5.1-.7.1-.1 0-.2 0-.3.1-.1 0-.2.1-.3.1l-.2.2c0 .1-.1.2-.1.3s0 .2.1.3l.2.2c.1.1.2.1.3.1h.3.4a.76.76 0 0 0 .4-.2l.3-.3c.1-.1.1-.2.1-.4l.1-.7h0zm2.1-4.1h1v2.4h0l.3-.3c.1-.1.2-.2.3-.2.1-.1.3-.1.4-.1h.4c.4 0 .7.1 1 .2s.5.3.7.5.3.5.4.8.1.6.1 1c0 .3 0 .6-.1.9s-.2.6-.4.8-.4.4-.6.5c-.3.1-.5.2-.9.2H68c-.2 0-.3-.1-.5-.1-.1-.1-.3-.1-.4-.2a1.38 1.38 0 0 1-.3-.4h0v.6h-1l.1-6.6h0zm3.6 4.1c0-.2 0-.4-.1-.6s-.1-.4-.2-.5a.78.78 0 0 0-.4-.4c-.2-.1-.3-.1-.6-.1-.4 0-.8.2-1 .5s-.3.7-.3 1.2c0 .2 0 .5.1.7s.1.4.3.5c.1.1.2.3.4.3s.3.1.6.1c.2 0 .4 0 .6-.1a.78.78 0 0 0 .4-.4c.1-.2.2-.3.2-.5v-.7zm1.9-4.1h1v6.4h-1V8.1zm3 4.3c0 .2 0 .4.1.5.1.2.1.3.2.4a1.38 1.38 0 0 0 .4.3c.2.1.3.1.6.1s.5-.1.7-.2.3-.3.4-.6h1c-.1.3-.1.5-.3.7-.1.2-.3.4-.5.5l-.6.3c-.2.1-.5.1-.7.1-.4 0-.7-.1-1-.2s-.5-.3-.7-.5-.3-.5-.4-.8-.1-.6-.1-1c0-.3.1-.6.2-.9s.3-.6.5-.8.4-.4.7-.5.6-.2.9-.2c.4 0 .7.1 1 .2.3.2.5.4.7.6a2.47 2.47 0 0 1 .4.9c.1.3.1.7.1 1h-3.6v.1zm2.4-.6c0-.2 0-.3-.1-.5-.1-.1-.1-.3-.2-.4s-.2-.2-.4-.3c-.1-.1-.3-.1-.5-.1s-.3 0-.5.1c-.1.1-.3.1-.4.3-.1.1-.2.2-.3.4s-.1.3-.1.5h2.5zm6.4 2.8c-.4 0-.7-.1-1-.2s-.5-.3-.7-.5-.4-.5-.5-.8-.2-.6-.2-1 .1-.7.2-1 .3-.6.5-.8.4-.4.7-.5.6-.2 1-.2.7.1 1 .2.5.3.7.5.4.5.5.8.2.6.2 1-.1.7-.2 1-.3.6-.5.8-.4.4-.7.5c-.3.2-.6.2-1 .2zm0-.8c.2 0 .4 0 .6-.1a.78.78 0 0 0 .4-.4c.1-.2.2-.3.2-.5.1-.2.1-.4.1-.6s0-.4-.1-.6-.1-.4-.2-.5a.78.78 0 0 0-.4-.4c-.2-.1-.4-.1-.6-.1s-.4 0-.6.1a.78.78 0 0 0-.4.4c-.1.2-.2.3-.2.5-.1.2-.1.4-.1.6s0 .4.1.6.1.4.2.5a.78.78 0 0 0 .4.4c.2.1.4.1.6.1zm3.2-4h1v.7h0c.2-.3.4-.5.6-.6s.5-.2.8-.2c.5 0 .9.1 1.2.4s.4.7.4 1.2v3.2h-1v-2.9c0-.4-.1-.6-.2-.8s-.4-.2-.7-.2c-.2 0-.3 0-.5.1-.1.1-.3.1-.4.3-.1.1-.2.2-.2.4-.1.2-.1.3-.1.5v2.7h-1V9.8h.1z"/><g fill-rule="evenodd"><path d="M67.3 23v-1.1c0-.2.1-.3.3-.3h4.7c.2 0 .3.1.3.3v.9c0 .2-.1.3-.4.7L69.8 27c.9 0 1.9.1 2.7.6.2.1.2.3.3.4v1.1c0 .2-.2.3-.3.2-1.5-.8-3.4-.8-5 0-.2.1-.3-.1-.3-.2V28c0-.2 0-.5.2-.7l2.8-4.1h-2.5c-.3 0-.4-.1-.4-.2zM50 29.6h-1.4c-.1 0-.2-.1-.3-.2V22c0-.1.1-.3.3-.3h1.3c.1 0 .3.1.3.2v1h0c.3-.9 1-1.4 1.9-1.4s1.5.4 1.9 1.4c.3-.9 1.1-1.4 2-1.4.6 0 1.3.2 1.7.8.5.6.4 1.5.4 2.3v4.7c0 .1-.1.3-.3.3h-1.4c-.1 0-.3-.1-.3-.3v-3.9V24c-.1-.5-.4-.6-.8-.6-.3 0-.7.2-.9.6s-.1 1-.1 1.4v3.9c0 .1-.1.3-.3.3h-1.4c-.1 0-.3-.1-.3-.3v-3.9c0-.8.1-2-.9-2s-1 1.2-1 2v3.9c-.1.2-.2.3-.4.3zm26.6-8.1c2.1 0 3.3 1.8 3.3 4.2 0 2.3-1.3 4-3.3 4-2.1 0-3.2-1.8-3.2-4.1s1.1-4.1 3.2-4.1zm0 1.5c-1.1 0-1.1 1.4-1.1 2.3s0 2.8 1.1 2.8 1.2-1.6 1.2-2.5c0-.6 0-1.4-.2-2a1 1 0 0 0-1-.6zm6.1 6.6h-1.4c-.1 0-.3-.1-.3-.3v-7.4c0-.1.1-.2.3-.2h1.3c.1 0 .2.1.3.2V23h0c.4-1 1-1.5 2-1.5.6 0 1.3.2 1.7.9.4.6.4 1.6.4 2.3v4.6c0 .1-.1.2-.3.2h-1.4c-.1 0-.2-.1-.3-.2v-4c0-.8.1-2-.9-2-.3 0-.7.2-.8.6-.2.5-.2.9-.2 1.4v4c-.1.2-.3.3-.4.3z"/><circle cx="88.5" cy="29" r=".7"/></g><path d="M103 29.6c-.1 0-.3-.1-.3-.3v-7.4c0-.1.1-.2.3-.2h.5c.1 0 .3.1.3.2V23c.4-.9 1.1-1.5 2-1.5h.1.1c.9 0 1.6.7 1.9 1.7.4-1 1.1-1.7 2.1-1.7h.1.1c.7 0 1.4.5 1.7 1.1.3.7.3 1.5.3 2.3v4.4c0 .1-.1.3-.3.3h-.6c-.1 0-.2-.1-.3-.2v-4.5c0-.5 0-1.1-.2-1.6s-.6-.8-1.1-.8-1 .4-1.3.9c-.4.6-.4 1.2-.4 2v4c0 .1-.1.2-.3.2h-.6c-.1 0-.3-.1-.3-.3v-4.7c0-.4 0-.9-.2-1.3s-.6-.7-1.1-.8c-.5 0-.9.4-1.2.8-.3.5-.4 1.1-.4 1.8v4.3c0 .1-.1.3-.3.3h-.6v-.1zm-4.3.1c-2 0-3-2.1-3-4.2 0-2.2 1.1-4.1 3.1-4.1h.1.1c2 0 3 2 3 4.1 0 2.2-1.1 4.1-3.2 4.1h-.1v.1zm.1-1c.7 0 1.2-.4 1.5-1.1.3-.6.3-1.3.3-2s-.1-1.5-.4-2.2c-.3-.6-.9-.9-1.4-.9-.6 0-1.2.5-1.5 1.1s-.3 1.3-.3 2 .1 1.5.4 2.2c.3.5.8.9 1.4.9zm-6.5 0c.9 0 1.4-.8 1.6-1.7 0-.1.1-.2.3-.2h.6c.1 0 .3.1.3.2-.3 1.6-1.3 2.7-2.6 2.7h-.1-.1c-2 0-2.9-2-2.9-4.1 0-2 .9-4.1 2.9-4.1h.1.1c1.4 0 2.4 1.1 2.6 2.7 0 .1-.1.2-.2.2h-.6c-.1 0-.2-.1-.2-.3-.2-.9-.7-1.6-1.5-1.7-1.4 0-1.8 1.7-1.8 3-.2 1.4.1 3.2 1.5 3.3z"/><path d="M63.5 26c0 .6 0 1-.3 1.5-.2.4-.6.7-1 .7-.6 0-.9-.4-.9-1 0-1.2 1.1-1.4 2.1-1.4v.2h.1zm1.5 3.6c-.1.1-.2.1-.3 0-.5-.4-.6-.6-.8-1-.8.8-1.3 1-2.4 1-1.2 0-2.2-.7-2.2-2.2 0-1.2.6-2 1.5-2.4.8-.3 1.9-.4 2.7-.5v-.2c0-.3 0-.7-.2-1s-.5-.4-.8-.4c-.5 0-1 .3-1.2.9 0 .1-.1.3-.2.3l-1.4-.2c-.1 0-.2-.1-.2-.3.3-1.7 1.8-2.2 3.2-2.2.7 0 1.6.2 2.2.7.7.7.6 1.5.6 2.5v2.2c0 .7.3 1 .5 1.3.1.1.1.3 0 .4-.2.3-.7.8-1 1.1h0zM44.7 26c0 .6 0 1-.3 1.5-.2.4-.6.7-1 .7-.6 0-.9-.4-.9-1 0-1.2 1.1-1.4 2.1-1.4l.1.2h0zm1.4 3.6c-.1.1-.2.1-.3 0-.5-.4-.6-.6-.8-1-.8.8-1.3 1-2.4 1-1.2 0-2.2-.7-2.2-2.2 0-1.2.6-2 1.5-2.4.8-.3 1.9-.4 2.7-.5v-.2c0-.3 0-.7-.2-1s-.5-.4-.8-.4c-.5 0-1 .3-1.2.9 0 .1-.1.3-.2.3l-1.4-.2c-.1 0-.2-.1-.2-.3.3-1.7 1.8-2.2 3.2-2.2.7 0 1.6.2 2.2.7.7.7.6 1.5.6 2.5v2.2c0 .7.3 1 .5 1.3.1.1.1.3 0 .4-.2.3-.7.8-1 1.1h0z" fill-rule="evenodd"/></g></svg>